<svg width="323" height="65" viewBox="0 0 323 65" fill="none" xmlns="http://www.w3.org/2000/svg">
<path d="M190.184 51.5377C188.735 55.5534 180.294 55.583 178.816 51.5772L163.452 9.96218C162.533 7.47274 165.317 5.05479 169.117 5.04154L199.529 4.93545C203.329 4.9222 206.131 7.32065 205.231 9.81642L190.184 51.5377Z" fill="#1A237E"/>
<path d="M163.703 4.41019C170.289 17.2646 187.789 35.2607 205.1 4.41019H163.703Z" fill="#0097B2"/>
<path d="M184.349 17.8252C189.17 17.8252 193.078 14.0749 193.078 9.44872C193.078 4.82252 189.17 1.07224 184.349 1.07224C179.529 1.07224 175.621 4.82252 175.621 9.44872C175.621 14.0749 179.529 17.8252 184.349 17.8252Z" fill="#1A237E"/>
<path d="M208.11 3.31662C199.12 16.5664 182.548 46.8518 188.176 61.9947L208.11 3.31662Z" fill="#0097B2"/>
<path d="M160.693 3.31662C169.683 16.5664 186.256 46.8518 180.628 61.9947L160.693 3.31662Z" fill="#0097B2"/>
<path d="M307.736 55.8247C302.294 55.8247 297.858 54.6969 294.427 52.4417C291.02 50.1865 289.317 47.182 289.317 43.4285V42.78C289.317 40.2618 290.037 38.0145 291.477 36.0374C292.918 34.0447 294.953 32.5156 297.583 31.4496C300.235 30.3683 303.254 29.8277 306.639 29.8277C311.715 29.8277 315.705 30.909 318.61 33.0716C321.537 35.2342 323 38.3 323 42.2702V45.0043H299.367C299.687 46.6414 300.647 47.9547 302.248 48.9433C303.871 49.9319 305.918 50.4262 308.388 50.4262C312.206 50.4262 315.191 49.4913 317.34 47.6225L322.211 51.3064C320.725 52.7276 318.713 53.8396 316.174 54.6431C313.636 55.4308 310.823 55.8247 307.736 55.8247ZM306.604 35.2496C304.638 35.2496 303.037 35.6973 301.802 36.5933C300.59 37.4894 299.812 38.7714 299.469 40.4398H313.258V39.9067C313.213 38.4238 312.618 37.2806 311.475 36.4775C310.331 35.6589 308.708 35.2496 306.604 35.2496Z" fill="#2E7D32"/>
<path d="M288.093 36.57C286.744 36.4466 285.555 36.3849 284.526 36.3849C280.776 36.3849 278.318 37.2422 277.151 38.9569V55.3612H267.238V30.2911H276.602L276.877 33.28C278.866 30.9784 281.622 29.8277 285.143 29.8277C286.241 29.8277 287.27 29.9281 288.23 30.1289L288.093 36.57Z" fill="#2E7D32"/>
<path d="M253.621 55.3612C253.163 54.759 252.832 54.0096 252.626 53.1135C250.225 54.9211 247.103 55.8247 243.262 55.8247C239.626 55.8247 236.608 55.1141 234.206 53.6929C231.828 52.2721 230.639 50.4799 230.639 48.3177C230.639 45.6607 232.091 43.6215 234.995 42.2006C237.922 40.7794 242.141 40.0613 247.652 40.0459H252.214V38.6093C252.214 37.4506 251.768 36.5237 250.877 35.8286C250.007 35.1338 248.624 34.7862 246.726 34.7862C245.057 34.7862 243.742 35.0563 242.782 35.5972C241.844 36.1378 241.375 36.8792 241.375 37.8216H231.462C231.462 36.3695 232.125 35.0254 233.452 33.7897C234.778 32.5539 236.653 31.5886 239.077 30.8935C241.501 30.1829 244.222 29.8277 247.241 29.8277C251.814 29.8277 255.439 30.6077 258.114 32.168C260.812 33.7126 262.162 35.8906 262.162 38.7018V49.5688C262.184 51.9474 262.676 53.747 263.637 54.9674V55.3612H253.621ZM245.423 50.7041C246.886 50.7041 248.235 50.4878 249.47 50.0552C250.705 49.6072 251.62 49.0125 252.214 48.271V43.9615H248.51C243.547 43.9615 240.906 45.1202 240.587 47.437L240.552 47.8309C240.552 48.6649 240.986 49.3525 241.856 49.8931C242.724 50.4337 243.913 50.7041 245.423 50.7041Z" fill="#2E7D32"/>
<path d="M212.425 50.4262C214.255 50.4262 215.741 50.0861 216.884 49.4063C218.028 48.727 218.623 47.8234 218.668 46.6956H227.964C227.941 48.3948 227.255 49.9548 225.906 51.376C224.557 52.7818 222.705 53.8783 220.349 54.666C218.017 55.4383 215.433 55.8247 212.597 55.8247C207.292 55.8247 203.107 54.6894 200.043 52.4188C196.978 50.1323 195.446 46.9815 195.446 42.965V42.5249C195.446 38.6631 196.967 35.5814 200.009 33.28C203.05 30.9784 207.223 29.8277 212.528 29.8277C217.171 29.8277 220.886 30.7236 223.676 32.5156C226.489 34.2919 227.918 36.6629 227.964 39.6287H218.668C218.623 38.3313 218.028 37.2806 216.884 36.4775C215.741 35.6589 214.232 35.2496 212.357 35.2496C210.048 35.2496 208.298 35.821 207.109 36.9643C205.943 38.0917 205.36 39.93 205.36 42.4786V43.1738C205.36 45.7533 205.943 47.6071 207.109 48.7345C208.275 49.8623 210.048 50.4262 212.425 50.4262Z" fill="#2E7D32"/>
<path d="M171.859 43.058C171.859 46.9194 170.556 50.0165 167.949 52.3492C165.364 54.666 161.866 55.8247 157.453 55.8247C153.702 55.8247 150.672 54.944 148.363 53.1831V65H138.45V30.2911H147.642L147.985 32.7469C150.387 30.8008 153.519 29.8277 157.384 29.8277C161.957 29.8277 165.513 30.9707 168.051 33.257C170.59 35.5431 171.859 38.6943 171.859 42.7104V43.058ZM161.946 42.5712C161.946 40.2389 161.329 38.4392 160.094 37.1727C158.882 35.9061 157.11 35.2726 154.777 35.2726C151.667 35.2726 149.529 36.0757 148.363 37.6824V47.9468C149.575 49.5997 151.736 50.4262 154.846 50.4262C159.579 50.4262 161.946 47.8076 161.946 42.5712Z" fill="#2E7D32"/>
<path d="M123.426 48.4331C123.426 47.6146 122.82 46.9736 121.608 46.5101C120.419 46.0313 118.498 45.6066 115.846 45.236C107.019 43.9845 102.605 41.4513 102.605 37.6361C102.605 35.4118 103.966 33.558 106.687 32.0751C109.432 30.5768 113.01 29.8277 117.424 29.8277C122.134 29.8277 125.896 30.5768 128.708 32.0751C131.544 33.5734 132.962 35.5197 132.962 37.9141H123.049C123.049 36.9563 122.592 36.1686 121.677 35.5506C120.762 34.9175 119.333 34.6007 117.389 34.6007C115.72 34.6007 114.428 34.8558 113.513 35.3655C112.599 35.8752 112.141 36.5237 112.141 37.3115C112.141 38.0529 112.655 38.6555 113.685 39.119C114.737 39.567 116.497 39.9609 118.967 40.3006C121.437 40.6248 123.518 40.9957 125.21 41.4129C130.446 42.7104 133.065 44.9576 133.065 48.1552C133.065 50.4416 131.613 52.295 128.708 53.7162C125.804 55.122 122.054 55.8247 117.458 55.8247C114.348 55.8247 111.581 55.4538 109.157 54.7123C106.756 53.9554 104.87 52.9285 103.497 51.6307C102.125 50.3178 101.439 48.9045 101.439 47.3908H110.838C110.929 48.5802 111.581 49.4913 112.793 50.1248C114.005 50.7579 115.629 51.0747 117.664 51.0747C119.561 51.0747 120.991 50.8354 121.951 50.3566C122.935 49.8623 123.426 49.2213 123.426 48.4331Z" fill="#2E7D32"/>
<path d="M60.804 42.5945C60.804 40.1076 61.5129 37.8908 62.9308 35.9444C64.3486 33.9985 66.3835 32.4922 69.0365 31.4264C71.7118 30.3606 74.8103 29.8277 78.3321 29.8277C83.3396 29.8277 87.4217 30.8626 90.5776 32.9324C93.7557 35.0025 95.5283 37.8137 95.8942 41.3663L95.9627 43.0809C95.9627 46.9273 94.3733 50.0165 91.1946 52.3492C88.0164 54.666 83.7512 55.8247 78.4006 55.8247C73.0495 55.8247 68.7731 54.666 65.5721 52.3492C62.3934 50.0319 60.804 46.8811 60.804 42.8958V42.5945ZM70.7172 43.0809C70.7172 45.4598 71.3805 47.2824 72.7064 48.549C74.0329 49.8006 75.9308 50.4262 78.4006 50.4262C80.8013 50.4262 82.6764 49.8081 84.0257 48.5723C85.3751 47.3212 86.0495 45.3286 86.0495 42.5945C86.0495 40.2618 85.3751 38.4547 84.0257 37.1727C82.6764 35.8906 80.7785 35.2496 78.3321 35.2496C75.908 35.2496 74.0329 35.8906 72.7064 37.1727C71.3805 38.4392 70.7172 40.4089 70.7172 43.0809Z" fill="url(#paint0_linear)"/>
<path d="M80.0271 31.2255C84.7015 31.2148 88.4738 28.6465 88.4528 25.4889C88.4318 22.3314 84.6255 19.7804 79.9511 19.7911L14.318 19.9412C9.64364 19.9519 5.87133 22.5202 5.89232 25.6777C5.91332 28.8353 9.71966 31.3863 14.394 31.3756L80.0271 31.2255Z" fill="#D50000"/>
<path d="M19.4966 6.58499C19.4966 2.9482 15.1322 0 9.74832 0C4.36447 0 0 2.9482 0 6.58499V48.7763C0 52.4131 4.36447 55.3613 9.74832 55.3613C15.1322 55.3613 19.4966 52.4131 19.4966 48.7763V6.58499Z" fill="#2E7D32"/>
<path d="M35.1745 49.5619C35.1465 53.1986 39.4882 56.1583 44.872 56.1725C50.2558 56.1868 54.6429 53.2502 54.6709 49.6135L55.0015 6.63648C55.0294 2.99976 50.6877 0.040066 45.3039 0.0258215C39.9201 0.0115771 35.533 2.94817 35.5051 6.5849L35.1745 49.5619Z" fill="#D50000"/>
<mask id="mask0" mask-type="alpha" maskUnits="userSpaceOnUse" x="2" y="19" width="21" height="13">
<path d="M22.1713 19.8904H13.1272V31.3581H22.1713V19.8904Z" fill="url(#paint1_linear)"/>
<path d="M13.2159 19.8777C11.8764 19.8742 10.5489 20.0195 9.30909 20.3054C8.06938 20.5914 6.94166 21.0122 5.99033 21.544C5.03905 22.0758 4.28283 22.7081 3.7648 23.4048C3.24678 24.1015 2.9772 24.849 2.97135 25.6046C2.9655 26.3601 3.22354 27.109 3.73073 27.8084C4.23793 28.5078 4.98431 29.144 5.92734 29.6808C6.87036 30.2175 7.99152 30.6443 9.22684 30.9367C10.4621 31.229 11.7873 31.3813 13.1268 31.3848L13.1713 25.6313L13.2159 19.8777Z" fill="url(#paint2_linear)"/>
</mask>
<g mask="url(#mask0)">
<path d="M29.2701 19.7718H0V31.6349H29.2701V19.7718Z" fill="url(#paint3_linear)"/>
</g>
<defs>
<linearGradient id="paint0_linear" x1="73.1753" y1="-5.93168" x2="74.5118" y2="51.4439" gradientUnits="userSpaceOnUse">
<stop offset="0.649793" stop-color="#D50000"/>
<stop offset="0.686465" stop-color="#781B02"/>
<stop offset="0.791667" stop-color="#457630"/>
<stop offset="1" stop-color="#3F712D"/>
</linearGradient>
<linearGradient id="paint1_linear" x1="16.3572" y1="16.2044" x2="16.6171" y2="28.0901" gradientUnits="userSpaceOnUse">
<stop offset="0.649793" stop-color="#D50000"/>
<stop offset="0.686465" stop-color="#781B02"/>
<stop offset="0.791667" stop-color="#457630"/>
<stop offset="1" stop-color="#3F712D"/>
</linearGradient>
<linearGradient id="paint2_linear" x1="-3.59853" y1="27.2313" x2="17.5429" y2="26.7487" gradientUnits="userSpaceOnUse">
<stop offset="0.649793" stop-color="#D50000"/>
<stop offset="0.686465" stop-color="#781B02"/>
<stop offset="0.791667" stop-color="#457630"/>
<stop offset="1" stop-color="#3F712D"/>
</linearGradient>
<linearGradient id="paint3_linear" x1="55.6132" y1="23.7261" x2="-2.39507" y2="19.0726" gradientUnits="userSpaceOnUse">
<stop offset="0.619975" stop-color="#D50000"/>
<stop offset="0.743834" stop-color="#8A3514"/>
<stop offset="0.869598" stop-color="#546026"/>
<stop offset="0.929667" stop-color="#426D2C"/>
<stop offset="0.986106" stop-color="#2E7D32"/>
</linearGradient>
</defs>
</svg>
